<svg id="Warstwa_2" xmlns="http://www.w3.org/2000/svg" viewBox="0 0 1501.31 1501.31"><defs><style>.cls-1{fill:#ceaa5b}</style></defs><g id="Layer_3"><path class="cls-1" d="M1445.19 465.37h-58.83c-34.71-77.28-82.8-146.96-143.13-207.28-63.98-63.99-138.48-114.22-221.43-149.3-85.86-36.32-177.09-54.73-271.14-54.73s-185.28 18.41-271.14 54.73c-3.25 1.38-6.5 2.78-9.72 4.2v917.69L986.77 320h77.76L731.68 775.59l362.85 431.05h-81.85L694.87 828.79l-286.46 392.85V143.73c-54.85 30.95-105.2 69.24-150.32 114.36-63.99 63.98-114.22 138.48-149.3 221.43-32.66 77.2-50.83 158.74-54.16 242.78H.52c3.37-91.32 23-179.94 58.49-263.84 37.8-89.39 91.93-169.67 160.86-238.6S369.07 96.81 458.46 59c92.56-39.15 190.87-59 292.2-59s199.64 19.85 292.2 59c89.39 37.81 169.66 91.93 238.59 160.86s123.06 149.21 160.86 238.6c.98 2.3 1.93 4.6 2.88 6.91Z"/><path class="cls-1" d="M1446.79 776.35c-3.05 84.98-21.27 167.43-54.27 245.45-35.08 82.95-85.32 157.45-149.3 221.43-63.98 63.98-138.48 114.22-221.43 149.3-85.86 36.32-177.09 54.73-271.14 54.73s-185.28-18.41-271.14-54.73c-82.95-35.08-157.45-85.32-221.43-149.3-61.65-61.65-110.52-133.06-145.39-212.37H54.06c1.61 4.01 3.25 8.01 4.94 12 37.81 89.39 91.93 169.67 160.86 238.6s149.21 123.05 238.6 160.86c92.56 39.15 190.87 59 292.2 59s199.64-19.85 292.2-59c89.39-37.81 169.67-91.93 238.6-160.86s123.05-149.21 160.86-238.6c35.83-84.72 55.49-174.25 58.56-266.51h-54.08ZM1447.26 750.66c0-9.48-.2-18.94-.57-28.36H847.43v54.05h599.37c.31-8.54.46-17.1.46-25.69ZM54.62 722.3c-.37 9.42-.57 18.88-.57 28.36 0 8.59.16 17.15.46 25.69h271.67V722.3H54.62Z"/><path class="cls-1" d="M1500.79 722.3h-54.1c.37 9.42.57 18.88.57 28.36 0 8.59-.16 17.15-.46 25.69h54.08a764.04 764.04 0 0 0-.08-54.05ZM54.05 750.66c0-9.48.2-18.94.57-28.36H.52C.17 731.73 0 741.18 0 750.66c0 8.59.15 17.15.44 25.69h54.08c-.31-8.54-.46-17.1-.46-25.69Z"/></g></svg>